<svg width="21" height="21" viewBox="0 0 21 21" fill="none" xmlns="http://www.w3.org/2000/svg">
<path fill-rule="evenodd" clip-rule="evenodd" d="M10.5 20.5C2.5893 20.5 -0.707226 19.4473 0.893789 10.5C0.957695 10.1849 1.01918 9.87898 1.07891 9.58207C2.51484 2.44055 2.90504 0.5 10.5 0.5C18.095 0.5 18.4852 2.44059 19.9212 9.58227C19.9808 9.87918 20.0423 10.1849 20.1062 10.5C21.7073 19.4473 18.4107 20.5 10.5 20.5ZM13.8334 5.5C13.8334 5.03977 14.2064 4.66668 14.6667 4.66668C15.1269 4.66668 15.5 5.03977 15.5 5.5C15.5 7.115 14.8861 8.3875 13.9182 9.24785C12.9657 10.0945 11.7193 10.5 10.5 10.5C9.28074 10.5 8.0343 10.0945 7.0818 9.24785C6.11395 8.3875 5.5 7.115 5.5 5.5C5.5 5.03977 5.87309 4.66668 6.33332 4.66668C6.79355 4.66668 7.16664 5.03977 7.16664 5.5C7.16664 6.66277 7.59438 7.47359 8.18902 8.00215C8.79898 8.54434 9.6359 8.83332 10.5 8.83332C11.3641 8.83332 12.201 8.54434 12.8109 8.00215C13.4056 7.47359 13.8334 6.66277 13.8334 5.5Z" fill="#F8F7F5"/>
</svg>
