<svg width="18" height="18" viewBox="0 0 18 18" fill="none" xmlns="http://www.w3.org/2000/svg">
<path fill-rule="evenodd" clip-rule="evenodd" d="M9.00004 0.450439C13.7188 0.450439 17.55 4.28168 17.55 9.00044C17.55 13.7192 13.7188 17.5504 9.00004 17.5504C4.28128 17.5504 0.450043 13.7192 0.450043 9.00044C0.450043 4.28168 4.28128 0.450439 9.00004 0.450439ZM5.26932 8.86197L7.24584 10.1799C7.4014 10.2834 7.6066 10.2708 7.74882 10.1495L13.1078 5.55583C13.2738 5.41319 13.522 5.42362 13.6758 5.57919C13.8297 5.73434 13.8373 5.9825 13.6934 6.14724L7.85434 12.8204C7.77134 12.9147 7.6504 12.9672 7.52444 12.9622C7.3989 12.9576 7.28212 12.8963 7.20663 12.7958L4.70419 9.45922C4.5824 9.29656 4.59533 9.07009 4.73505 8.92244C4.87436 8.77481 5.09999 8.74937 5.26932 8.86197Z" fill="#38B64B"/>
</svg>
